HIERARCHY
ROOT Hips
{
	OFFSET 0.000000 71.427986 0.000000
	CHANNELS 6 Xposition Yposition Zposition Xrotation Yrotation Zrotation
	JOINT Pelvis
	{
		OFFSET 0.000000 0.000000 0.000000
		CHANNELS 3 Xrotation Yrotation Zrotation
		JOINT LeftUpLeg
		{
			OFFSET 6.797100 -2.508499 -1.318700
			CHANNELS 3 Xrotation Yrotation Zrotation
			JOINT LeftLeg
			{
				OFFSET 0.069008 -29.241863 0.690200
				CHANNELS 3 Xrotation Yrotation Zrotation
				JOINT LeftFoot
				{
					OFFSET -0.069008 -29.568123 -0.266800
					CHANNELS 3 Xrotation Yrotation Zrotation
					JOINT LeftToeBase
					{
						OFFSET 3.145500 -8.631000 16.059900
						CHANNELS 3 Xrotation Yrotation Zrotation
						End Site
						{
							OFFSET 0.000000 18.501587 0.000000
						}
					}
				}
			}
			JOINT Left_ShortSleeve
			{
				OFFSET 0.265923 -10.480953 1.153800
				CHANNELS 3 Xrotation Yrotation Zrotation
				End Site
				{
					OFFSET 1.725763 19.823879 0.000000
				}
			}
		}
		JOINT RightUpLeg
		{
			OFFSET -6.797100 -2.508499 -1.318700
			CHANNELS 3 Xrotation Yrotation Zrotation
			JOINT RightLeg
			{
				OFFSET -0.082453 -29.241932 0.688000
				CHANNELS 3 Xrotation Yrotation Zrotation
				JOINT RightFoot
				{
					OFFSET 0.082453 -29.568058 -0.264600
					CHANNELS 3 Xrotation Yrotation Zrotation
					JOINT RightToeBase
					{
						OFFSET -3.115300 -8.682800 16.113400
						CHANNELS 3 Xrotation Yrotation Zrotation
						End Site
						{
							OFFSET 0.000000 18.567114 0.000000
						}
					}
				}
			}
			JOINT Right_ShortSleeve
			{
				OFFSET -0.265923 -10.480953 1.153800
				CHANNELS 3 Xrotation Yrotation Zrotation
				End Site
				{
					OFFSET -1.725766 19.823910 0.000000
				}
			}
		}
	}
	JOINT Spine
	{
		OFFSET 0.000000 13.368103 0.470500
		CHANNELS 3 Xrotation Yrotation Zrotation
		JOINT Spine1
		{
			OFFSET 0.147000 13.837402 0.538800
			CHANNELS 3 Xrotation Yrotation Zrotation
			JOINT Spine2
			{
				OFFSET 0.168000 16.242897 -1.435500
				CHANNELS 3 Xrotation Yrotation Zrotation
				JOINT Neck
				{
					OFFSET 0.217200 18.631500 -1.679100
					CHANNELS 3 Xrotation Yrotation Zrotation
					JOINT Head
					{
						OFFSET 0.000000 6.599396 1.385900
						CHANNELS 3 Xrotation Yrotation Zrotation
						JOINT Hat
						{
							OFFSET -0.532200 27.220596 -10.096100
							CHANNELS 3 Xrotation Yrotation Zrotation
							End Site
							{
								OFFSET 0.000000 22.029861 0.000000
							}
						}
						JOINT HairD
						{
							OFFSET -10.777400 17.437393 -1.325900
							CHANNELS 3 Xrotation Yrotation Zrotation
							JOINT HairD1
							{
								OFFSET -3.290299 -11.051193 1.062200
								CHANNELS 3 Xrotation Yrotation Zrotation
								End Site
								{
									OFFSET 0.000000 11.579437 0.000000
								}
							}
						}
						JOINT HairB
						{
							OFFSET -10.777400 17.437393 1.467900
							CHANNELS 3 Xrotation Yrotation Zrotation
							JOINT HairB1
							{
								OFFSET -1.561200 -12.956299 3.590200
								CHANNELS 3 Xrotation Yrotation Zrotation
								End Site
								{
									OFFSET 0.000000 13.534866 0.000000
								}
							}
						}
						JOINT HairA
						{
							OFFSET 9.713100 17.437393 1.467900
							CHANNELS 3 Xrotation Yrotation Zrotation
							JOINT HairA1
							{
								OFFSET 1.561200 -12.956299 3.590200
								CHANNELS 3 Xrotation Yrotation Zrotation
								End Site
								{
									OFFSET 0.000000 13.534866 0.000000
								}
							}
						}
						JOINT HairC
						{
							OFFSET 9.713100 17.437393 -1.325900
							CHANNELS 3 Xrotation Yrotation Zrotation
							JOINT HairC1
							{
								OFFSET 3.290300 -11.051193 1.062200
								CHANNELS 3 Xrotation Yrotation Zrotation
								End Site
								{
									OFFSET 0.000000 11.579437 0.000000
								}
							}
						}
					}
				}
				JOINT LeftShoulder
				{
					OFFSET 5.101800 15.108002 -2.763700
					CHANNELS 3 Xrotation Yrotation Zrotation
					JOINT LeftArm
					{
						OFFSET 9.825497 2.506317 -1.597400
						CHANNELS 3 Xrotation Yrotation Zrotation
						JOINT LeftForeArm
						{
							OFFSET 21.966244 0.000000 0.000000
							CHANNELS 3 Xrotation Yrotation Zrotation
							JOINT LeftHand
							{
								OFFSET 33.879036 0.000000 0.000000
								CHANNELS 3 Xrotation Yrotation Zrotation
								JOINT LeftHandThumb1
								{
									OFFSET 6.715286 -2.359680 3.363841
									CHANNELS 3 Xrotation Yrotation Zrotation
									JOINT LeftHandThumb2
									{
										OFFSET 2.507072 -1.447464 1.447461
										CHANNELS 3 Xrotation Yrotation Zrotation
										JOINT LeftHandThumb3
										{
											OFFSET 2.898338 -1.673355 1.673357
											CHANNELS 3 Xrotation Yrotation Zrotation
											End Site
											{
												OFFSET -0.295959 3.727692 -0.131651
											}
										}
									}
								}
								JOINT LeftHandIndex1
								{
									OFFSET 14.190811 -0.254547 3.840278
									CHANNELS 3 Xrotation Yrotation Zrotation
									JOINT LeftHandIndex2
									{
										OFFSET 3.551727 0.000000 -0.000000
										CHANNELS 3 Xrotation Yrotation Zrotation
										JOINT LeftHandIndex3
										{
											OFFSET 2.894196 0.000000 0.000000
											CHANNELS 3 Xrotation Yrotation Zrotation
											End Site
											{
												OFFSET -1.000603 2.690872 0.366626
											}
										}
									}
								}
								JOINT LeftHandMiddle1
								{
									OFFSET 13.776489 0.000000 0.000000
									CHANNELS 3 Xrotation Yrotation Zrotation
									JOINT LeftHandMiddle2
									{
										OFFSET 3.438232 0.000000 0.000000
										CHANNELS 3 Xrotation Yrotation Zrotation
										JOINT LeftHandMiddle3
										{
											OFFSET 3.691551 0.000000 0.000000
											CHANNELS 3 Xrotation Yrotation Zrotation
											End Site
											{
												OFFSET -1.082298 3.499527 0.457670
											}
										}
									}
								}
								JOINT LeftHandRing1
								{
									OFFSET 13.966164 -0.268127 -3.067488
									CHANNELS 3 Xrotation Yrotation Zrotation
									JOINT LeftHandRing2
									{
										OFFSET 3.162567 0.000000 0.000000
										CHANNELS 3 Xrotation Yrotation Zrotation
										JOINT LeftHandRing3
										{
											OFFSET 3.324348 0.000000 0.000000
											CHANNELS 3 Xrotation Yrotation Zrotation
											End Site
											{
												OFFSET -0.861900 3.184998 0.405154
											}
										}
									}
								}
								JOINT LeftHandPinky1
								{
									OFFSET 13.131393 -0.168503 -5.746925
									CHANNELS 3 Xrotation Yrotation Zrotation
									JOINT LeftHandPinky2
									{
										OFFSET 2.849182 0.000000 0.000000
										CHANNELS 3 Xrotation Yrotation Zrotation
										JOINT LeftHandPinky3
										{
											OFFSET 2.805038 0.000000 0.000000
											CHANNELS 3 Xrotation Yrotation Zrotation
											End Site
											{
												OFFSET -0.882500 2.642609 0.325652
											}
										}
									}
								}
							}
							JOINT Left_Sleeve
							{
								OFFSET 6.592125 -0.646545 0.805568
								CHANNELS 3 Xrotation Yrotation Zrotation
								End Site
								{
									OFFSET -0.000179 20.275787 -0.000000
								}
							}
						}
					}
				}
				JOINT RightShoulder
				{
					OFFSET -5.731700 15.108002 -2.763700
					CHANNELS 3 Xrotation Yrotation Zrotation
					JOINT RightArm
					{
						OFFSET -9.825497 2.506317 -1.597400
						CHANNELS 3 Xrotation Yrotation Zrotation
						JOINT RightForeArm
						{
							OFFSET -21.966242 0.000000 0.000000
							CHANNELS 3 Xrotation Yrotation Zrotation
							JOINT RightHand
							{
								OFFSET -33.879032 0.000000 0.000000
								CHANNELS 3 Xrotation Yrotation Zrotation
								JOINT RightHandThumb1
								{
									OFFSET -6.715286 -2.359680 3.363841
									CHANNELS 3 Xrotation Yrotation Zrotation
									JOINT RightHandThumb2
									{
										OFFSET -2.507072 -1.447464 1.447461
										CHANNELS 3 Xrotation Yrotation Zrotation
										JOINT RightHandThumb3
										{
											OFFSET -2.898338 -1.673355 1.673357
											CHANNELS 3 Xrotation Yrotation Zrotation
											End Site
											{
												OFFSET 0.295959 3.727692 -0.131651
											}
										}
									}
								}
								JOINT RightHandIndex1
								{
									OFFSET -14.190811 -0.254547 3.840278
									CHANNELS 3 Xrotation Yrotation Zrotation
									JOINT RightHandIndex2
									{
										OFFSET -3.551727 0.000000 -0.000000
										CHANNELS 3 Xrotation Yrotation Zrotation
										JOINT RightHandIndex3
										{
											OFFSET -2.894196 0.000000 0.000000
											CHANNELS 3 Xrotation Yrotation Zrotation
											End Site
											{
												OFFSET 1.000603 2.690872 0.366626
											}
										}
									}
								}
								JOINT RightHandMiddle1
								{
									OFFSET -13.776489 0.000000 0.000000
									CHANNELS 3 Xrotation Yrotation Zrotation
									JOINT RightHandMiddle2
									{
										OFFSET -3.438232 0.000000 0.000000
										CHANNELS 3 Xrotation Yrotation Zrotation
										JOINT RightHandMiddle3
										{
											OFFSET -3.691551 0.000000 0.000000
											CHANNELS 3 Xrotation Yrotation Zrotation
											End Site
											{
												OFFSET 1.082298 3.499527 0.457670
											}
										}
									}
								}
								JOINT RightHandRing1
								{
									OFFSET -13.966164 -0.268127 -3.067488
									CHANNELS 3 Xrotation Yrotation Zrotation
									JOINT RightHandRing2
									{
										OFFSET -3.162567 0.000000 0.000000
										CHANNELS 3 Xrotation Yrotation Zrotation
										JOINT RightHandRing3
										{
											OFFSET -3.324348 0.000000 0.000000
											CHANNELS 3 Xrotation Yrotation Zrotation
											End Site
											{
												OFFSET 0.861900 3.184998 0.405154
											}
										}
									}
								}
								JOINT RightHandPinky1
								{
									OFFSET -13.131393 -0.168503 -5.746925
									CHANNELS 3 Xrotation Yrotation Zrotation
									JOINT RightHandPinky2
									{
										OFFSET -2.849182 0.000000 0.000000
										CHANNELS 3 Xrotation Yrotation Zrotation
										JOINT RightHandPinky3
										{
											OFFSET -2.805038 0.000000 0.000000
											CHANNELS 3 Xrotation Yrotation Zrotation
											End Site
											{
												OFFSET 0.882500 2.642609 0.325652
											}
										}
									}
								}
							}
							JOINT Right_Sleeve
							{
								OFFSET -6.592125 -0.646545 0.805568
								CHANNELS 3 Xrotation Yrotation Zrotation
								End Site
								{
									OFFSET 0.000179 20.275787 -0.000000
								}
							}
						}
					}
				}
				JOINT Bind_Right_JacketString
				{
					OFFSET -3.534800 11.969597 7.200700
					CHANNELS 3 Xrotation Yrotation Zrotation
					JOINT Bind_Right_JacketString1
					{
						OFFSET -0.319900 -6.102600 2.794100
						CHANNELS 3 Xrotation Yrotation Zrotation
						End Site
						{
							OFFSET 0.000000 6.719452 0.000000
						}
					}
				}
				JOINT Bind_Left_JacketString
				{
					OFFSET 2.904800 11.969597 7.200700
					CHANNELS 3 Xrotation Yrotation Zrotation
					JOINT Bind_Left_JacketString1
					{
						OFFSET 0.364800 -5.904503 3.186800
						CHANNELS 3 Xrotation Yrotation Zrotation
						End Site
						{
							OFFSET 0.000000 6.719513 0.000000
						}
					}
				}
				JOINT HairE
				{
					OFFSET 5.915200 17.612701 -11.592200
					CHANNELS 3 Xrotation Yrotation Zrotation
					JOINT HairE1
					{
						OFFSET 0.289200 -7.171898 -1.284500
						CHANNELS 3 Xrotation Yrotation Zrotation
						End Site
						{
							OFFSET 0.000000 7.291756 0.000000
						}
					}
				}
				JOINT HairF
				{
					OFFSET -0.864800 17.612701 -11.592200
					CHANNELS 3 Xrotation Yrotation Zrotation
					JOINT HairF1
					{
						OFFSET 0.000000 -14.087097 -2.127501
						CHANNELS 3 Xrotation Yrotation Zrotation
						End Site
						{
							OFFSET 0.000000 14.246841 0.000000
						}
					}
				}
				JOINT HairG
				{
					OFFSET -8.087700 17.612701 -11.592200
					CHANNELS 3 Xrotation Yrotation Zrotation
					JOINT HairG1
					{
						OFFSET -0.293600 -6.081398 -0.910100
						CHANNELS 3 Xrotation Yrotation Zrotation
						End Site
						{
							OFFSET 0.000000 6.156120 0.000000
						}
					}
				}
			}
		}
	}
	JOINT Pouch
	{
		OFFSET 0.000000 4.394501 10.847300
		CHANNELS 3 Xrotation Yrotation Zrotation
		End Site
		{
			OFFSET 0.000000 21.880577 0.000000
		}
	}
	JOINT Bag
	{
		OFFSET -13.229000 4.813004 -0.593300
		CHANNELS 3 Xrotation Yrotation Zrotation
		End Site
		{
			OFFSET 0.000000 21.880577 0.000000
		}
	}
	JOINT OccupyGuyFacialAnim_Joint
	{
		OFFSET 1.000000 -70.206398 -1.655000
		CHANNELS 3 Xrotation Yrotation Zrotation
		End Site
		{
			OFFSET 0.000000 21.880577 0.000000
		}
	}
}
MOTION
Frames: 4
Frame Time: 0.033333
-1.075410 65.027512 3.306599 -35.276882 33.882772 14.827301 -0.000001 0.000000 0.000002 -70.130955 3.432194 -9.749627 81.069687 -0.141355 -2.646004 20.904694 -9.731515 0.913360 0.000000 -0.000000 -0.000001 -0.000001 0.000001 -0.000003 -56.494950 14.154817 -38.416078 97.732296 1.102386 3.051134 -3.911795 3.980131 2.502212 -0.000000 -0.000000 0.000000 0.000000 -0.000000 -0.000001 10.540139 3.702452 0.131370 21.035924 7.836127 0.627996 21.035929 7.836139 0.627994 -6.198625 6.823523 -2.032220 -4.490719 31.815701 -2.886634 0.000001 0.000000 -0.000000 0.000001 0.000000 -0.000000 0.000001 0.000000 -0.000000 0.000001 0.000000 -0.000000 0.000001 0.000000 -0.000000 0.000001 0.000000 -0.000000 0.000001 0.000000 -0.000000 0.000001 0.000000 -0.000000 0.000001 0.000000 -0.000000 0.639394 -2.402339 -7.202757 -57.399004 -25.343803 -63.472825 -214.705822 -103.229567 -202.810924 67.108849 8.913520 18.886851 -6.630364 -6.285071 -11.149686 8.585784 27.837529 -8.227388 0.000000 0.000002 0.000001 1.281279 5.256543 -87.309687 0.941283 0.917766 -84.259809 -0.000002 0.000000 0.000003 -1.680146 -1.006229 -95.791163 -2.392819 -4.076963 -60.584632 0.000007 0.000000 -0.000001 -3.050691 -1.172725 -99.119534 -3.285830 -4.606288 -71.124194 0.000001 0.000003 -0.000001 -1.224984 -5.532547 -70.608993 -7.413102 -6.604434 -96.339525 -0.000004 -0.000001 -0.000001 0.000002 0.000000 0.000001 0.608169 3.640219 -10.339405 -48.890907 34.795849 19.495990 -18.614099 61.457462 16.299224 38.888126 12.649036 -20.902616 -18.129504 21.715569 26.475010 22.834376 -39.842795 8.028453 0.000002 -0.000001 0.000000 -10.234250 -4.645168 54.278147 1.686125 -2.085505 74.731456 -0.000001 0.000001 -0.000001 -13.102716 2.862527 65.456770 -3.624148 3.544883 91.114047 0.000000 0.000000 -0.000003 -1.180948 1.252449 46.800207 -5.331353 6.090977 80.865396 -0.000000 -0.000001 -0.000000 2.307734 3.095996 32.181348 -1.730481 5.578240 39.162225 -0.000002 -0.000000 0.000002 -0.000000 0.000000 0.000000 -0.000000 -0.000002 0.000000 -0.000000 -0.000000 -0.000001 -0.000000 -0.000002 0.000001 -0.000000 -0.000002 0.000001 -0.000000 -0.000002 0.000000 -0.000000 -0.000000 -0.000000 -0.000000 -0.000002 0.000001 -0.000000 -0.000002 0.000001 -0.000000 -0.000002 0.000000 -0.000000 -0.000000 -0.000000 -0.000001 0.000000 0.000002 -0.000001 0.000000 0.000002 -0.000001 0.000000 0.000002 
-1.040887 65.076752 3.198666 -35.176874 32.917994 14.171393 -0.000000 0.000001 0.000001 -69.945611 3.249749 -8.826038 81.164845 -0.156077 -2.650225 20.660165 -9.475107 1.183839 -0.000000 0.000000 -0.000000 -0.000000 0.000000 -0.000000 -56.709066 13.680431 -38.104693 96.913896 1.057359 3.036541 -2.647900 4.756802 3.425850 -0.000000 0.000000 -0.000001 -0.000001 0.000001 -0.000000 10.804349 3.694868 0.153862 21.567909 7.817449 0.623082 21.567903 7.817437 0.623086 -5.862891 6.707707 -1.744905 -4.248513 31.689885 -3.053104 -0.000001 -0.000000 0.000000 -0.000001 -0.000000 0.000000 -0.000001 -0.000000 -0.000000 -0.000001 -0.000000 0.000000 -0.000001 0.000000 0.000000 -0.000001 -0.000000 0.000000 -0.000001 0.000000 0.000000 -0.000001 -0.000000 0.000000 -0.000001 -0.000000 0.000000 0.638330 -2.462643 -7.422119 -57.785183 -26.500345 -63.851853 -212.536936 -104.525288 -200.521595 67.046619 8.697975 20.774633 -6.247819 -5.466658 -11.103517 8.038430 27.111849 -8.111559 -0.000000 0.000001 -0.000000 1.455419 5.198120 -87.917785 0.940173 0.917747 -84.192750 -0.000006 -0.000002 0.000001 -1.683641 -1.038182 -96.299199 -2.374563 -4.066612 -60.327475 0.000001 0.000000 -0.000001 -2.983161 -1.189121 -99.227957 -3.275389 -4.602713 -70.994257 0.000004 -0.000001 -0.000002 -1.155732 -5.556322 -70.046745 -7.431779 -6.602197 -96.501755 0.000002 -0.000001 0.000001 -0.000002 -0.000001 0.000002 0.594191 3.508012 -10.147393 -48.826246 33.926677 19.717440 -18.874466 62.039708 16.623869 39.809727 12.370153 -21.680323 -17.642068 21.637969 26.307360 22.737355 -39.738228 7.972172 -0.000001 -0.000001 -0.000000 -10.350140 -4.668858 53.885265 1.682984 -2.084792 74.646434 -0.000000 0.000000 0.000004 -12.940200 2.853895 64.868485 -3.630629 3.544763 91.218843 0.000001 -0.000001 0.000001 -0.890319 0.996608 46.003844 -5.321400 6.089370 80.771631 -0.000000 -0.000001 -0.000000 2.332965 3.077647 31.884699 -1.589681 5.360750 38.031183 0.000002 -0.000002 -0.000002 -0.000001 -0.000002 -0.000001 -0.000003 -0.000000 -0.000001 -0.000002 -0.000000 -0.000001 -0.000003 -0.000000 -0.000001 -0.000003 -0.000000 -0.000001 -0.000003 -0.000000 -0.000001 -0.000002 -0.000000 -0.000001 -0.000003 -0.000000 -0.000001 -0.000003 -0.000000 -0.000001 -0.000003 -0.000000 -0.000001 -0.000002 -0.000000 -0.000001 -0.000000 0.000001 0.000001 -0.000000 0.000001 0.000001 -0.000000 0.000001 0.000001 
-1.108883 65.103638 3.121101 -35.072096 31.790426 13.457806 -0.000001 0.000001 -0.000000 -69.764939 3.212963 -7.494609 81.356227 -0.169426 -2.656834 20.299575 -9.351539 1.872127 -0.000000 -0.000002 -0.000001 0.000000 -0.000001 -0.000000 -56.939203 13.332393 -37.424707 96.105864 1.020597 3.021924 -1.174967 5.344191 4.704806 0.000000 -0.000000 0.000000 0.000000 0.000000 -0.000000 11.022795 3.823531 0.171424 22.009518 8.070026 0.588133 22.009506 8.070040 0.588135 -5.664974 6.643017 -1.556667 -4.271385 31.659682 -3.080352 -0.000000 0.000000 -0.000000 -0.000000 0.000000 -0.000000 -0.000000 0.000000 -0.000000 -0.000000 0.000000 -0.000000 -0.000000 -0.000000 -0.000000 -0.000000 0.000000 -0.000000 -0.000000 -0.000000 -0.000000 -0.000000 0.000000 -0.000000 -0.000000 0.000000 -0.000000 0.634081 -2.570125 -7.572690 -58.239657 -27.829488 -64.085937 -210.885355 -106.112152 -198.663784 66.574421 8.459172 22.308404 -5.863049 -4.635860 -11.059513 7.493737 26.377453 -8.000228 0.000001 -0.000003 0.000000 1.544130 5.136158 -88.515317 0.933174 0.917703 -83.771252 -0.000000 -0.000002 -0.000000 -1.782957 -1.052006 -96.708915 -2.343865 -4.049001 -59.893676 0.000002 0.000001 -0.000001 -2.956180 -1.193846 -99.233681 -3.247477 -4.593050 -70.645910 -0.000001 0.000002 0.000000 -1.129600 -5.546459 -69.523259 -7.407844 -6.605061 -96.294035 -0.000002 -0.000001 -0.000001 0.000002 0.000002 0.000002 0.567251 3.246383 -10.017840 -48.621931 33.318254 19.531013 -19.064694 62.567743 16.877329 40.211369 11.992656 -21.844613 -17.087118 21.188456 26.361323 22.507389 -39.488746 7.839216 0.000002 -0.000001 0.000000 -10.506591 -4.633585 53.166654 1.684058 -2.085040 74.675626 0.000001 0.000000 0.000000 -12.682976 2.917370 63.673421 -3.635311 3.544661 91.294583 0.000000 -0.000000 -0.000003 -0.377078 0.511323 44.814647 -5.307755 6.087147 80.642773 -0.000000 -0.000000 -0.000000 2.286537 3.166163 31.672086 -1.413037 5.070532 36.430668 -0.000000 -0.000001 0.000000 -0.000000 0.000001 0.000002 -0.000002 -0.000001 0.000000 0.000001 -0.000003 0.000001 -0.000002 -0.000001 0.000001 -0.000002 -0.000001 0.000001 -0.000002 -0.000001 0.000000 0.000001 -0.000003 0.000001 -0.000002 -0.000001 0.000001 -0.000002 -0.000001 0.000001 -0.000002 -0.000001 0.000000 0.000001 -0.000003 0.000001 -0.000001 0.000001 -0.000000 -0.000001 0.000001 -0.000000 -0.000001 0.000001 -0.000000 
-1.255746 65.106918 3.065525 -35.010556 30.542939 12.672768 0.000000 0.000001 0.000000 -69.605864 3.103630 -6.018422 81.642726 -0.177982 -2.665696 19.838040 -9.116674 2.897933 0.000000 0.000001 0.000001 -0.000000 -0.000000 0.000001 -57.152397 13.104371 -36.283440 95.382226 1.005058 3.008510 0.308152 5.620253 6.023452 -0.000000 -0.000000 0.000000 -0.000000 -0.000002 -0.000000 11.202923 4.021908 0.194502 22.375631 8.459124 0.548562 22.375623 8.459108 0.548560 -5.585423 6.638148 -1.410675 -4.396203 31.843838 -3.074412 0.000001 0.000000 -0.000000 0.000001 0.000000 -0.000000 0.000001 0.000000 -0.000000 0.000001 0.000000 -0.000000 -0.000001 0.000000 -0.000000 0.000001 0.000000 -0.000000 -0.000001 0.000000 -0.000000 0.000001 0.000000 -0.000000 0.000001 0.000000 -0.000000 0.628799 -2.663884 -7.507466 -58.940161 -28.939887 -64.104611 -210.091606 -107.567085 -197.556610 66.135363 8.016547 23.246501 -5.478608 -3.798245 -11.018380 6.955039 25.639386 -7.894573 -0.000000 0.000002 -0.000001 1.188192 5.120764 -88.569576 0.929427 0.917643 -83.545317 0.000001 -0.000002 -0.000000 -2.119339 -1.003682 -96.576293 -2.325707 -4.038426 -59.636089 0.000001 -0.000000 -0.000001 -3.134603 -1.150836 -98.937715 -3.229337 -4.586656 -70.419196 0.000001 0.000001 -0.000002 -1.229648 -5.434330 -69.035618 -7.370551 -6.609319 -95.970544 -0.000001 0.000000 0.000003 0.000001 -0.000003 -0.000000 0.543529 3.012664 -9.946238 -48.564868 32.770240 19.320105 -19.309676 63.217178 17.199555 40.216847 11.364977 -21.750929 -16.468641 20.594311 26.429938 22.353621 -39.320818 7.750567 0.000001 -0.000002 0.000000 -10.539648 -4.677905 52.410494 1.679296 -2.083943 74.546706 0.000001 -0.000001 0.000000 -12.265802 2.886448 62.514775 -3.641711 3.544514 91.398265 0.000000 0.000000 0.000003 0.157895 -0.031649 43.788947 -5.290274 6.084256 80.477920 -0.000001 -0.000001 -0.000000 2.203955 3.284221 31.818771 -1.344313 4.944990 35.977239 -0.000000 -0.000001 0.000000 -0.000000 -0.000001 -0.000000 -0.000001 -0.000000 0.000000 -0.000001 0.000001 -0.000001 -0.000001 -0.000000 0.000001 -0.000001 -0.000000 0.000001 -0.000001 -0.000000 0.000000 -0.000001 0.000001 -0.000001 -0.000001 -0.000000 0.000001 -0.000001 -0.000000 0.000001 -0.000001 -0.000000 0.000000 -0.000001 0.000001 -0.000001 0.000000 0.000001 0.000000 0.000000 0.000001 0.000000 0.000000 0.000001 0.000000 
